<?xml version="1.0" encoding="UTF-8"?>
<svg version="1.1" xmlns="http://www.w3.org/2000/svg" width="281" height="179">
<path d="M0 0 C92.73 0 185.46 0 281 0 C281 59.07 281 118.14 281 179 C188.27 179 95.54 179 0 179 C0 119.93 0 60.86 0 0 Z " fill="#FCFDFE" transform="translate(0,0)"/>
<path d="M0 0 C1.04028854 -0.00101212 1.04028854 -0.00101212 2.10159302 -0.00204468 C12.3735423 0.01384032 22.02867761 0.46521627 32 3.25 C32.63292969 3.41628906 33.26585937 3.58257812 33.91796875 3.75390625 C54.3091724 9.16218227 75.35016908 18.76222485 87 37.25 C87 37.91 87 38.57 87 39.25 C81.67573567 38.62673111 76.42914823 37.81316874 71.16015625 36.82421875 C62.7375713 35.29601241 54.2983517 34.22050854 45.78833008 33.31469727 C43.43376982 33.06209983 41.08127518 32.79418675 38.72851562 32.52539062 C22.53821656 29.74140783 22.53821656 29.74140783 7.32473755 32.25759888 C5.21656798 35.42827931 5.60940168 38.80560731 5.65942383 42.48510742 C5.65898575 43.32435257 5.65854767 44.16359772 5.65809631 45.02827454 C5.66018753 47.80424201 5.68353414 50.57960669 5.70703125 53.35546875 C5.71262602 55.27931895 5.71689668 57.20317342 5.71989441 59.12702942 C5.73135253 64.1922484 5.76082807 69.25720958 5.79400635 74.32232666 C5.82468637 79.49023959 5.83839532 84.65819414 5.85351562 89.82617188 C5.8856968 99.96756122 5.93690488 110.10875918 6 120.25 C2.7 120.25 -0.6 120.25 -4 120.25 C-3.99333817 119.17924728 -3.98667633 118.10849457 -3.97981262 117.0052948 C-3.91905776 106.92570255 -3.87405444 96.84614734 -3.84456348 86.76641369 C-3.82889231 81.58402578 -3.80762752 76.40178541 -3.77368164 71.21948242 C-3.74114 66.22040159 -3.72315793 61.22146287 -3.71536827 56.22228432 C-3.70981541 54.31284662 -3.69897232 52.4034169 -3.68280983 50.49403954 C-3.66110454 47.82422308 -3.65803016 45.15499758 -3.65942383 42.48510742 C-3.648638 41.69172974 -3.63785217 40.89835205 -3.6267395 40.08093262 C-3.62499848 35.9323691 -3.62499848 35.9323691 -5.34794617 32.26020813 C-21.06672093 22.64839419 -61.34603904 35.59605642 -79.25219727 38.83862305 C-82 39.25 -82 39.25 -86 39.25 C-81.32195346 25.71965001 -67.02393888 17.70750693 -54.9375 11.4375 C-37.31556929 2.99690708 -19.37786036 0.01692239 0 0 Z " fill="#1467B3" transform="translate(142,7.75)"/>
<path d="M0 0 C2.27769795 -0.00983462 4.55453917 -0.04100018 6.83203125 -0.07226562 C8.28515096 -0.07878553 9.73827702 -0.08403996 11.19140625 -0.08789062 C13.1556958 -0.10190918 13.1556958 -0.10190918 15.15966797 -0.11621094 C18.38671875 0.24023438 18.38671875 0.24023438 20.31616211 1.45166016 C24.26546036 8.04973518 20.70877874 19.09930588 19.19921875 26.11523438 C18.97435791 27.19587158 18.74949707 28.27650879 18.51782227 29.38989258 C15.33992645 44.48074974 11.8305798 59.46874095 7.38671875 74.24023438 C0.49127334 73.75463963 -5.11881143 72.25555965 -11.48828125 69.61523438 C-12.36597168 69.25550537 -13.24366211 68.89577637 -14.14794922 68.52514648 C-25.2394786 63.86037904 -34.03430953 57.67255701 -42.61328125 49.24023438 C-43.27457031 48.59183594 -43.93585937 47.9434375 -44.6171875 47.27539062 C-52.47260982 38.97884308 -55.79897832 29.41680932 -55.73828125 18.17773438 C-55.74214844 17.45779297 -55.74601562 16.73785156 -55.75 15.99609375 C-55.74408924 12.81314799 -55.62678838 10.28075575 -54.61328125 7.24023438 C-44.98787703 3.72232014 -33.74034148 2.71810131 -23.61328125 1.24023438 C-22.96794434 1.14162109 -22.32260742 1.04300781 -21.65771484 0.94140625 C-14.47371736 -0.01623043 -7.23489725 0.01893952 0 0 Z " fill="#1467B3" transform="translate(105.61328125,49.759765625)"/>
<path d="M0 0 C1.17232178 0.00467285 2.34464355 0.0093457 3.55249023 0.01416016 C20.48267579 0.28628205 37.48029666 2.49916031 54.15234375 5.3828125 C55.30077759 5.58028076 55.30077759 5.58028076 56.47241211 5.78173828 C58.3125 6.4375 58.3125 6.4375 60.3125 9.4375 C61.65754205 22.32158702 59.90349042 33.60929156 52 44.25 C50.79536814 45.66706156 49.56607225 47.06354294 48.3125 48.4375 C47.70535156 49.12457031 47.09820312 49.81164062 46.47265625 50.51953125 C34.96651458 62.82569095 17.51432996 70.53256793 1.3125 74.4375 C0.3225 74.4375 -0.6675 74.4375 -1.6875 74.4375 C-5.5261824 61.20629685 -8.77114466 47.90070719 -11.6875 34.4375 C-11.98817383 33.0769751 -11.98817383 33.0769751 -12.29492188 31.68896484 C-17.23208609 9.24105509 -17.23208609 9.24105509 -15.6875 3.4375 C-11.05567752 -0.88456564 -6.01048947 -0.05250087 0 0 Z " fill="#1367B3" transform="translate(174.6875,49.5625)"/>
<path d="M0 0 C2.82424288 2.19022918 4.41508603 3.83017207 6 7 C6.68128376 13.81283762 6.68128376 13.81283762 4.953125 16.82421875 C2.60454058 19.67705805 0.74185875 21.76045164 -2.98828125 22.2734375 C-7.43801478 22.46787964 -9.35399301 22.49796372 -13 19.6875 C-16.14047864 15.46748183 -16.43868072 12.17643253 -16 7 C-11.96913784 -0.25555188 -8.00060882 -1.15732077 0 0 Z " fill="#186AB4" transform="translate(174,147)"/>
<path d="M0 0 C3.56069065 2.70612489 4.66536439 4.10976102 5.43359375 8.44921875 C5.64580241 12.75126703 5.40776602 15.31101604 3.1875 19.0625 C-0.25434251 22.11098908 -3.47583119 22.33459179 -7.99609375 22.29296875 C-11.14507222 21.83259178 -12.834621 20.23099654 -15 18 C-16.84862688 14.30274625 -16.47587094 10.03538558 -16 6 C-12.03038778 -0.48369996 -7.21804832 -1.14446292 0 0 Z " fill="#1467B3" transform="translate(215,147)"/>
<path d="M0 0 C3.63 0 7.26 0 11 0 C12.50217206 3.47824363 14.00183602 6.95753053 15.5 10.4375 C15.92925781 11.43072266 16.35851562 12.42394531 16.80078125 13.44726562 C17.40986328 14.86362305 17.40986328 14.86362305 18.03125 16.30859375 C18.40830078 17.18314209 18.78535156 18.05769043 19.17382812 18.95874023 C20 21 20 21 20 22 C16.7 22 13.4 22 10 22 C8.68 18.37 7.36 14.74 6 11 C4.33167423 13.50248865 3.37618326 15.41149187 2.375 18.1875 C1.92125 19.445625 1.4675 20.70375 1 22 C-1.97 22 -4.94 22 -8 22 C-7.29807915 17.06678166 -5.36469225 12.74025318 -3.4375 8.1875 C-3.10814453 7.39923828 -2.77878906 6.61097656 -2.43945312 5.79882812 C-1.63041094 3.86416204 -0.81576148 1.93184247 0 0 Z " fill="#1367B3" transform="translate(101,147)"/>
<path d="M0 0 C3.63 0 7.26 0 11 0 C12.33988903 3.10148421 13.67211641 6.20588046 15 9.3125 C15.3815625 10.19357422 15.763125 11.07464844 16.15625 11.98242188 C16.5171875 12.82998047 16.878125 13.67753906 17.25 14.55078125 C17.58515625 15.33106689 17.9203125 16.11135254 18.265625 16.9152832 C19 19 19 19 19 22 C16.03 22 13.06 22 10 22 C8.35 18.04 6.7 14.08 5 10 C3.35 13.96 1.7 17.92 0 22 C-2.97 22 -5.94 22 -9 22 C-8.06666423 19.45673553 -7.12848392 16.91543412 -6.1875 14.375 C-5.92646484 13.66214844 -5.66542969 12.94929687 -5.39648438 12.21484375 C-3.83035219 7.99982134 -2.09518176 3.98902474 0 0 Z " fill="#1366B3" transform="translate(54,147)"/>
<path d="M0 0 C2.64 0 5.28 0 8 0 C8.99 3.96 9.98 7.92 11 12 C11.45375 10.7625 11.9075 9.525 12.375 8.25 C13.4384007 5.40754505 14.55192483 2.67336954 16 0 C18.31 0 20.62 0 23 0 C23.79725902 7.36040917 24.12886183 14.59760355 24 22 C22.35 22 20.7 22 19 22 C18.67 17.05 18.34 12.1 18 7 C16.35 11.62 14.7 16.24 13 21 C11.68 21 10.36 21 9 21 C7.68 16.71 6.36 12.42 5 8 C4.67 12.62 4.34 17.24 4 22 C2.35 22 0.7 22 -1 22 C-0.67 14.74 -0.34 7.48 0 0 Z " fill="#1467B3" transform="translate(131,147)"/>
<path d="M0 0 C7.59 0 15.18 0 23 0 C23 1.98 23 3.96 23 6 C21.02 6 19.04 6 17 6 C17 11.28 17 16.56 17 22 C13.7 22 10.4 22 7 22 C7 16.72 7 11.44 7 6 C4.69 6 2.38 6 0 6 C0 4.02 0 2.04 0 0 Z " fill="#1367B3" transform="translate(24,147)"/>
<path d="M0 0 C7.26 0 14.52 0 22 0 C22 1.98 22 3.96 22 6 C20.02 6 18.04 6 16 6 C16 11.28 16 16.56 16 22 C12.7 22 9.4 22 6 22 C6 16.72 6 11.44 6 6 C4.02 6 2.04 6 0 6 C0 4.02 0 2.04 0 0 Z " fill="#1467B3" transform="translate(72,147)"/>
<path d="M0 0 C12.46903101 -0.37036726 12.46903101 -0.37036726 14.8984375 1.32421875 C16.59936481 3.91179965 16.3140521 5.98509986 16 9 C15.01 10.485 15.01 10.485 14 12 C14.41213948 14.03351362 14.41213948 14.03351362 15.375 16.0625 C17 19.85652174 17 19.85652174 17 22 C15.35 22 13.7 22 12 22 C11.74476563 21.15115234 11.74476563 21.15115234 11.484375 20.28515625 C11.24203125 19.55167969 10.9996875 18.81820312 10.75 18.0625 C10.51796875 17.33160156 10.2859375 16.60070312 10.046875 15.84765625 C9.52867187 14.93306641 9.52867187 14.93306641 9 14 C7.68 13.67 6.36 13.34 5 13 C5 15.97 5 18.94 5 22 C3.35 22 1.7 22 0 22 C0 14.74 0 7.48 0 0 Z " fill="#196AB4" transform="translate(224,147)"/>
<path d="M0 0 C0.90105469 0.01804688 1.80210937 0.03609375 2.73046875 0.0546875 C3.41753906 0.07789063 4.10460937 0.10109375 4.8125 0.125 C4.8125 1.445 4.8125 2.765 4.8125 4.125 C2.5025 4.125 0.1925 4.125 -2.1875 4.125 C-2.1875 5.115 -2.1875 6.105 -2.1875 7.125 C-0.39948711 8.33996605 -0.39948711 8.33996605 1.8125 9.375 C4.015625 10.6640625 4.015625 10.6640625 5.8125 12.125 C6.5625 15.75 6.5625 15.75 5.8125 19.125 C3.61467909 21.29784567 2.32403943 22.06687052 -0.765625 22.41796875 C-1.64734375 22.38316406 -2.5290625 22.34835938 -3.4375 22.3125 C-4.32953125 22.28542969 -5.2215625 22.25835937 -6.140625 22.23046875 C-6.81609375 22.19566406 -7.4915625 22.16085938 -8.1875 22.125 C-8.5175 20.805 -8.8475 19.485 -9.1875 18.125 C-5.9044902 16.4834951 -2.76204967 17.60611376 0.8125 18.125 C0.85539755 16.19390419 0.85539755 16.19390419 -0.1875 14.125 C-2.49854818 13.07452356 -4.83333651 12.07492562 -7.1875 11.125 C-9.1875 8.125 -9.1875 8.125 -9 5.0625 C-7.5989287 -0.00291163 -4.69539616 -0.12195834 0 0 Z " fill="#1A6BB5" transform="translate(252.1875,146.875)"/>
<path d="M0 0 C5.61 0 11.22 0 17 0 C17 1.32 17 2.64 17 4 C15.02 4 13.04 4 11 4 C11 9.94 11 15.88 11 22 C9.35 22 7.7 22 6 22 C6 16.06 6 10.12 6 4 C4.02 4 2.04 4 0 4 C0 2.68 0 1.36 0 0 Z " fill="#196AB4" transform="translate(181,147)"/>
<path d="M0 0 C3.63 0 7.26 0 11 0 C10.67 0.99 10.34 1.98 10 3 C8.35 3 6.7 3 5 3 C5 5.31 5 7.62 5 10 C6.32 10 7.64 10 9 10 C9 10.99 9 11.98 9 13 C7.68 13 6.36 13 5 13 C5 15.97 5 18.94 5 22 C3.35 22 1.7 22 0 22 C0 14.74 0 7.48 0 0 Z " fill="#0B63B1" transform="translate(224,147)"/>
<path d="M0 0 C4.75 0.75 4.75 0.75 7 3 C7.265625 5.05859375 7.265625 5.05859375 7.25 7.4375 C7.25515625 8.21996094 7.2603125 9.00242188 7.265625 9.80859375 C7 12 7 12 5 15 C2.0625 15.4375 2.0625 15.4375 -1 15 C-3.53468405 12.80327383 -3.94439772 11.37332959 -4.4375 8.0625 C-3.90475283 4.33326978 -2.54808744 2.70734291 0 0 Z " fill="#F5F8FB" transform="translate(167,150)"/>
<path d="M0 0 C2.375 0.9375 2.375 0.9375 4.375 3.9375 C4.92645843 7.48975172 5.0462883 10.80690917 3.1875 13.9375 C0.68038007 15.32073858 -0.8069827 15.43065303 -3.625 14.9375 C-6.35982251 12.57989439 -6.61258539 11.03681686 -7.0625 7.4375 C-6.625 3.9375 -6.625 3.9375 -4.9375 1.4375 C-2.625 -0.0625 -2.625 -0.0625 0 0 Z " fill="#F7F9FC" transform="translate(210.625,150.0625)"/>
<path d="M0 0 C1.875 0.25 1.875 0.25 4 1 C5.25 3.0625 5.25 3.0625 6 5 C6.99 5 7.98 5 9 5 C8.125 10.75 8.125 10.75 7 13 C5.68 13 4.36 13 3 13 C2.49242138 11.58603098 1.99425075 10.16868271 1.5 8.75 C1.08234375 7.56664062 1.08234375 7.56664062 0.65625 6.359375 C0 4 0 4 0 0 Z " fill="#0D64B1" transform="translate(137,155)"/>
<path d="M0 0 C2.64 0 5.28 0 8 0 C8.66 2.97 9.32 5.94 10 9 C8.35 8.67 6.7 8.34 5 8 C5 7.01 5 6.02 5 5 C4.0409375 5.2784375 4.0409375 5.2784375 3.0625 5.5625 C2.381875 5.706875 1.70125 5.85125 1 6 C0 5 0 5 -0.0625 2.4375 C-0.041875 1.633125 -0.02125 0.82875 0 0 Z " fill="#1567B3" transform="translate(131,147)"/>
<path d="M0 0 C1.65 0 3.3 0 5 0 C5.625 2.375 5.625 2.375 6 5 C5.34 5.66 4.68 6.32 4 7 C2.68 7 1.36 7 0 7 C0 4.69 0 2.38 0 0 Z " fill="#E4ECF5" transform="translate(229,150)"/>
<path d="M0 0 C2.97 0 5.94 0 9 0 C9 1.32 9 2.64 9 4 C6.03 4 3.06 4 0 4 C0 2.68 0 1.36 0 0 Z " fill="#0D64B1" transform="translate(248,147)"/>
<path d="M0 0 C2.475 0.99 2.475 0.99 5 2 C5 3.32 5 4.64 5 6 C3.35 6 1.7 6 0 6 C0 4.02 0 2.04 0 0 Z " fill="#2671B7" transform="translate(130,163)"/>
<path d="M0 0 C1.64826111 2.96687001 2.44271087 5.65626525 3 9 C1.35 8.67 -0.3 8.34 -2 8 C-1.34 5.36 -0.68 2.72 0 0 Z " fill="#2C75B9" transform="translate(138,147)"/>
<path d="M0 0 C0.33 0 0.66 0 1 0 C1 3.3 1 6.6 1 10 C0.01 9.34 -0.98 8.68 -2 8 C-1.125 2.25 -1.125 2.25 0 0 Z " fill="#C4D4E8" transform="translate(149,152)"/>
</svg>
